<svg xmlns="http://www.w3.org/2000/svg" xmlns:xlink="http://www.w3.org/1999/xlink" width="200" zoomAndPan="magnify" viewBox="0 0 150 74.999997" height="50" preserveAspectRatio="xMidYMid meet" version="1.0"><defs><g/></defs><g fill="#ffffff" fill-opacity="1"><g transform="translate(5.579572, 46.173013)"><g><path d="M 1.894531 -1.035156 L 2.144531 -0.253906 L 2.878906 0.0742188 L 3.382812 0 L 4.1875 0.0742188 L 4.59375 0.0234375 L 5.351562 0.0234375 L 6.15625 -0.226562 L 6.386719 -0.960938 L 6.386719 -1.816406 L 6.4375 -2.269531 L 6.359375 -2.800781 L 6.410156 -4.417969 L 6.636719 -4.921875 L 7.117188 -5.199219 L 8.582031 -4.996094 L 9.085938 -4.566406 L 9.386719 -4.0625 L 9.589844 -3.609375 L 10.121094 -2.851562 L 10.601562 -1.941406 L 10.878906 -1.566406 L 11.078125 -1.058594 L 11.355469 -0.632812 L 11.910156 -0.175781 L 12.769531 0.0507812 L 14.765625 0.0234375 L 15.242188 0.0742188 L 16.078125 0.0507812 L 16.554688 -0.175781 L 16.707031 -0.730469 L 16.429688 -1.289062 L 16.125 -1.640625 L 15.925781 -2.121094 L 15.066406 -3.40625 L 14.839844 -3.863281 L 14.03125 -5.171875 L 13.730469 -5.550781 L 13.703125 -6.15625 L 13.929688 -6.714844 L 14.285156 -7.089844 L 14.636719 -7.394531 L 15.621094 -9.160156 L 15.949219 -10.625 L 15.898438 -12.214844 L 15.824219 -12.71875 L 15.371094 -14.160156 L 15.167969 -14.585938 L 14.890625 -14.992188 L 13.453125 -16.503906 L 12.566406 -16.984375 L 11.609375 -17.3125 L 10.171875 -17.640625 L 9.363281 -17.667969 L 8.632812 -17.617188 L 7.117188 -17.617188 L 6.613281 -17.714844 L 6.109375 -17.714844 L 5.652344 -17.589844 L 5.148438 -17.589844 L 4.644531 -17.691406 L 4.089844 -17.714844 L 2.597656 -17.589844 L 2.144531 -17.339844 L 1.84375 -16.632812 L 1.867188 -10.851562 L 1.917969 -10.347656 L 1.84375 -9.335938 L 1.867188 -8.78125 L 1.867188 -8.277344 L 1.917969 -7.796875 L 1.867188 -7.320312 L 1.84375 -5.273438 L 1.894531 -4.769531 Z M 7.117188 -9.238281 L 6.613281 -9.515625 L 6.410156 -9.917969 L 6.410156 -11.433594 L 6.359375 -11.863281 L 6.410156 -12.921875 L 6.636719 -13.402344 L 7.167969 -13.601562 L 7.671875 -13.578125 L 8.683594 -13.679688 L 9.386719 -13.527344 L 10.042969 -13.476562 L 10.523438 -13.351562 L 11.15625 -12.566406 L 11.304688 -12.164062 L 11.40625 -11.507812 L 11.332031 -10.75 L 11.105469 -10.246094 L 10.828125 -9.867188 L 10.550781 -9.640625 L 10.09375 -9.4375 L 9.363281 -9.261719 L 8.882812 -9.238281 L 7.671875 -9.289062 Z M 7.117188 -9.238281 "/></g></g></g><g fill="#ffffff" fill-opacity="1"><g transform="translate(23.089511, 46.173013)"><g><path d="M 0.328125 -0.679688 L 0.453125 -0.152344 L 0.960938 -0.0234375 L 3.179688 -0.0234375 L 3.835938 0.0507812 L 4.417969 -0.203125 L 4.871094 -0.65625 L 5.300781 -1.515625 L 5.730469 -1.992188 L 6.335938 -2.246094 L 6.839844 -2.195312 L 8.253906 -2.222656 L 8.78125 -2.144531 L 9.363281 -2.222656 L 9.816406 -2.222656 L 10.347656 -2.171875 L 11.535156 -2.222656 L 12.367188 -1.941406 L 12.894531 -1.539062 L 13.023438 -1.085938 L 13.300781 -0.632812 L 13.730469 -0.226562 L 14.386719 0.0234375 L 14.839844 -0.0234375 L 15.722656 0.0507812 L 17.289062 0 L 17.742188 -0.152344 L 17.84375 -0.679688 L 17.691406 -1.3125 L 17.515625 -1.765625 L 17.1875 -2.195312 L 17.035156 -2.699219 L 16.78125 -3.078125 L 16.632812 -3.558594 L 16.203125 -4.46875 L 16.027344 -4.945312 L 15.773438 -5.375 L 15.421875 -6.308594 L 15.140625 -6.714844 L 14.941406 -7.21875 L 14.714844 -7.648438 L 14.535156 -8.152344 L 14.308594 -8.53125 L 14.160156 -9.035156 L 13.878906 -9.488281 L 13.679688 -9.917969 L 13.425781 -10.347656 L 13.300781 -10.828125 L 12.796875 -11.710938 L 12.644531 -12.191406 L 12.191406 -13.148438 L 12.0625 -13.550781 L 11.683594 -14.4375 L 11.179688 -15.371094 L 10.777344 -16.328125 L 10.550781 -16.707031 L 10.398438 -17.1875 L 9.945312 -17.667969 L 9.085938 -17.894531 L 8.277344 -17.640625 L 7.796875 -17.1875 L 7.648438 -16.734375 L 6.5625 -14.460938 L 6.285156 -14.007812 L 4.871094 -10.828125 L 4.746094 -10.398438 L 4.46875 -9.945312 L 4.0625 -9.035156 L 3.683594 -8.378906 L 3.507812 -7.898438 L 3.15625 -7.242188 L 3.003906 -6.714844 L 2.777344 -6.308594 L 2.597656 -5.804688 L 1.894531 -4.492188 L 1.160156 -2.648438 L 0.859375 -2.246094 L 0.632812 -1.742188 Z M 8.125 -6.234375 L 7.648438 -6.4375 L 7.570312 -6.941406 L 8.582031 -9.238281 L 8.808594 -9.640625 L 9.136719 -9.894531 L 9.4375 -9.691406 L 9.765625 -8.707031 L 10.042969 -8.277344 L 10.144531 -7.875 L 10.398438 -7.371094 L 10.574219 -6.914062 L 10.523438 -6.460938 L 10.09375 -6.257812 Z M 8.125 -6.234375 "/></g></g></g><g fill="#ffffff" fill-opacity="1"><g transform="translate(41.406832, 46.173013)"><g><path d="M 1.867188 -0.730469 L 2.09375 -0.277344 L 2.699219 0 L 5.476562 -0.0507812 L 6.234375 -0.277344 L 6.511719 -0.679688 L 6.5625 -1.160156 L 6.535156 -1.691406 L 6.460938 -2.222656 L 6.535156 -5.628906 L 6.4375 -7.089844 L 6.664062 -7.445312 L 7.042969 -7.34375 L 7.671875 -6.5625 L 9.085938 -5.222656 L 9.414062 -4.796875 L 10.246094 -4.113281 L 10.828125 -4.113281 L 11.257812 -4.417969 L 13.375 -6.5625 L 13.703125 -6.992188 L 14.058594 -7.34375 L 14.359375 -7.394531 L 14.5625 -7.089844 L 14.636719 -6.585938 L 14.5625 -6.109375 L 14.585938 -5.652344 L 14.5625 -5.148438 L 14.636719 -4.214844 L 14.5625 -0.730469 L 14.8125 -0.203125 L 15.371094 0 L 18.398438 0.0234375 L 18.878906 -0.277344 L 19.15625 -0.808594 L 19.230469 -1.3125 L 19.128906 -4.339844 L 19.179688 -4.820312 L 19.128906 -5.804688 L 19.207031 -6.308594 L 19.179688 -6.8125 L 19.230469 -7.34375 L 19.179688 -7.847656 L 19.257812 -8.304688 L 19.179688 -15.445312 L 19.230469 -15.976562 L 19.179688 -16.40625 L 19.207031 -16.933594 L 18.929688 -17.414062 L 18.421875 -17.714844 L 17.667969 -17.488281 L 17.035156 -17.136719 L 16.453125 -16.429688 L 15.015625 -14.941406 L 14.789062 -14.5625 L 11.054688 -10.601562 L 10.5 -10.421875 L 10.042969 -10.574219 L 9.714844 -10.902344 L 9.414062 -11.332031 L 9.011719 -11.660156 L 8.707031 -12.0625 L 6.964844 -13.855469 L 6.359375 -14.613281 L 5.929688 -14.992188 L 5.601562 -15.34375 L 5.324219 -15.722656 L 4.972656 -16.050781 L 4.695312 -16.40625 L 4.140625 -16.984375 L 3.40625 -17.515625 L 2.675781 -17.714844 L 2.171875 -17.4375 L 1.894531 -16.933594 L 1.84375 -16.40625 L 1.917969 -5.273438 L 1.816406 -4.796875 L 1.917969 -1.210938 Z M 1.867188 -0.730469 "/></g></g></g><g fill="#ffffff" fill-opacity="1"><g transform="translate(62.499505, 46.173013)"><g><path d="M 0.328125 -0.679688 L 0.453125 -0.152344 L 0.960938 -0.0234375 L 3.179688 -0.0234375 L 3.835938 0.0507812 L 4.417969 -0.203125 L 4.871094 -0.65625 L 5.300781 -1.515625 L 5.730469 -1.992188 L 6.335938 -2.246094 L 6.839844 -2.195312 L 8.253906 -2.222656 L 8.78125 -2.144531 L 9.363281 -2.222656 L 9.816406 -2.222656 L 10.347656 -2.171875 L 11.535156 -2.222656 L 12.367188 -1.941406 L 12.894531 -1.539062 L 13.023438 -1.085938 L 13.300781 -0.632812 L 13.730469 -0.226562 L 14.386719 0.0234375 L 14.839844 -0.0234375 L 15.722656 0.0507812 L 17.289062 0 L 17.742188 -0.152344 L 17.84375 -0.679688 L 17.691406 -1.3125 L 17.515625 -1.765625 L 17.1875 -2.195312 L 17.035156 -2.699219 L 16.78125 -3.078125 L 16.632812 -3.558594 L 16.203125 -4.46875 L 16.027344 -4.945312 L 15.773438 -5.375 L 15.421875 -6.308594 L 15.140625 -6.714844 L 14.941406 -7.21875 L 14.714844 -7.648438 L 14.535156 -8.152344 L 14.308594 -8.53125 L 14.160156 -9.035156 L 13.878906 -9.488281 L 13.679688 -9.917969 L 13.425781 -10.347656 L 13.300781 -10.828125 L 12.796875 -11.710938 L 12.644531 -12.191406 L 12.191406 -13.148438 L 12.0625 -13.550781 L 11.683594 -14.4375 L 11.179688 -15.371094 L 10.777344 -16.328125 L 10.550781 -16.707031 L 10.398438 -17.1875 L 9.945312 -17.667969 L 9.085938 -17.894531 L 8.277344 -17.640625 L 7.796875 -17.1875 L 7.648438 -16.734375 L 6.5625 -14.460938 L 6.285156 -14.007812 L 4.871094 -10.828125 L 4.746094 -10.398438 L 4.46875 -9.945312 L 4.0625 -9.035156 L 3.683594 -8.378906 L 3.507812 -7.898438 L 3.15625 -7.242188 L 3.003906 -6.714844 L 2.777344 -6.308594 L 2.597656 -5.804688 L 1.894531 -4.492188 L 1.160156 -2.648438 L 0.859375 -2.246094 L 0.632812 -1.742188 Z M 8.125 -6.234375 L 7.648438 -6.4375 L 7.570312 -6.941406 L 8.582031 -9.238281 L 8.808594 -9.640625 L 9.136719 -9.894531 L 9.4375 -9.691406 L 9.765625 -8.707031 L 10.042969 -8.277344 L 10.144531 -7.875 L 10.398438 -7.371094 L 10.574219 -6.914062 L 10.523438 -6.460938 L 10.09375 -6.257812 Z M 8.125 -6.234375 "/></g></g></g><g fill="#ffffff" fill-opacity="1"><g transform="translate(80.816825, 46.173013)"><g><path d="M 6.585938 0.0507812 L 8.277344 0 L 9.011719 -0.253906 L 9.261719 -0.960938 L 9.335938 -2.269531 L 9.261719 -3.230469 L 9.3125 -3.761719 L 9.289062 -4.769531 L 9.335938 -5.222656 L 9.261719 -5.78125 L 9.3125 -9.84375 L 9.238281 -10.371094 L 9.3125 -12.566406 L 9.515625 -13.324219 L 9.992188 -13.628906 L 10.976562 -13.679688 L 11.910156 -13.550781 L 12.441406 -13.628906 L 12.894531 -13.601562 L 13.324219 -13.878906 L 13.628906 -14.4375 L 13.652344 -16.832031 L 13.375 -17.339844 L 12.894531 -17.667969 L 11.332031 -17.667969 L 10.851562 -17.714844 L 10.320312 -17.640625 L 9.84375 -17.691406 L 7.796875 -17.589844 L 7.292969 -17.691406 L 6.8125 -17.714844 L 6.285156 -17.640625 L 5.730469 -17.691406 L 5.273438 -17.589844 L 3.785156 -17.667969 L 3.003906 -17.589844 L 1.238281 -17.691406 L 0.757812 -17.4375 L 0.453125 -16.859375 L 0.480469 -16.355469 L 0.429688 -15.09375 L 0.480469 -14.308594 L 0.707031 -13.855469 L 1.160156 -13.601562 L 1.664062 -13.652344 L 4.0625 -13.601562 L 4.542969 -13.351562 L 4.820312 -12.847656 L 4.769531 -12.039062 L 4.820312 -11.332031 L 4.796875 -10.777344 L 4.820312 -10.273438 L 4.769531 -9.566406 L 4.84375 -5.804688 L 4.796875 -5.300781 L 4.769531 -3.253906 L 4.820312 -2.726562 L 4.796875 -1.261719 L 4.746094 -0.78125 L 5.074219 -0.226562 L 5.804688 0.0234375 Z M 6.585938 0.0507812 "/></g></g></g><g fill="#ffffff" fill-opacity="1"><g transform="translate(94.92066, 46.173013)"><g><path d="M 1.816406 -0.730469 L 2.144531 -0.253906 L 2.625 0.0234375 L 8.328125 -0.0234375 L 8.78125 0.0507812 L 10.320312 -0.0234375 L 11.863281 0.0742188 L 12.339844 0.0234375 L 12.871094 -0.226562 L 13.097656 -0.707031 L 13.148438 -1.1875 L 13.125 -2.75 L 13.175781 -3.230469 L 12.847656 -3.734375 L 12.089844 -3.988281 L 8.757812 -4.039062 L 8.277344 -3.960938 L 7.722656 -4.011719 L 7.167969 -3.960938 L 6.636719 -4.265625 L 6.410156 -5.046875 L 6.4375 -6.285156 L 6.664062 -6.8125 L 7.117188 -7.089844 L 8.101562 -7.089844 L 8.605469 -7.140625 L 9.945312 -7.066406 L 10.625 -7.117188 L 11.15625 -7.066406 L 11.609375 -7.089844 L 12.113281 -7.371094 L 12.367188 -7.847656 L 12.417969 -9.84375 L 12.367188 -10.347656 L 12.140625 -10.828125 L 11.710938 -11.105469 L 10.699219 -11.128906 L 10.195312 -11.078125 L 9.664062 -11.078125 L 9.085938 -11.128906 L 7.089844 -11.105469 L 6.664062 -11.382812 L 6.359375 -11.835938 L 6.308594 -12.617188 L 6.5625 -13.351562 L 7.34375 -13.578125 L 12.191406 -13.601562 L 12.71875 -13.878906 L 12.996094 -14.335938 L 12.945312 -15.371094 L 12.871094 -15.847656 L 12.894531 -16.40625 L 12.972656 -16.882812 L 12.71875 -17.386719 L 12.191406 -17.617188 L 10.171875 -17.640625 L 9.714844 -17.589844 L 9.210938 -17.667969 L 8.101562 -17.617188 L 7.597656 -17.667969 L 6.613281 -17.640625 L 6.15625 -17.691406 L 2.851562 -17.617188 L 2.121094 -17.4375 L 1.867188 -16.882812 L 1.917969 -15.875 L 1.816406 -15.140625 L 1.917969 -13.855469 L 1.867188 -13.324219 L 1.917969 -12.871094 L 1.917969 -8.355469 L 1.84375 -7.824219 L 1.917969 -6.839844 L 1.867188 -5.828125 L 1.941406 -5.300781 L 1.894531 -4.746094 L 1.917969 -4.265625 L 1.84375 -3.8125 L 1.894531 -3.230469 L 1.894531 -2.726562 L 1.941406 -1.742188 L 1.917969 -1.238281 Z M 1.816406 -0.730469 "/></g></g></g><g fill="#ffffff" fill-opacity="1"><g transform="translate(109.377717, 46.173013)"><g><path d="M 9.289062 0.253906 L 10.800781 0.328125 L 13.25 -0.175781 L 14.636719 -0.78125 L 15.015625 -1.035156 L 15.46875 -1.3125 L 15.898438 -1.613281 L 16.226562 -1.941406 L 16.503906 -2.371094 L 16.933594 -2.699219 L 17.691406 -4.011719 L 17.917969 -4.46875 L 18.042969 -4.945312 L 18.222656 -5.453125 L 18.296875 -5.929688 L 18.144531 -6.386719 L 17.515625 -6.664062 L 14.8125 -6.6875 L 14.257812 -6.4375 L 13.753906 -5.957031 L 13.550781 -5.527344 L 12.59375 -4.492188 L 11.734375 -4.0625 L 11.230469 -3.910156 L 10.699219 -3.863281 L 9.289062 -3.886719 L 7.925781 -4.390625 L 7.445312 -4.617188 L 7.117188 -4.972656 L 6.183594 -6.183594 L 5.980469 -6.613281 L 5.679688 -7.597656 L 5.601562 -8.78125 L 5.628906 -9.589844 L 5.804688 -10.042969 L 5.828125 -10.550781 L 5.980469 -11.003906 L 6.410156 -11.910156 L 7.042969 -12.695312 L 7.875 -13.300781 L 8.355469 -13.503906 L 9.238281 -13.753906 L 10.800781 -13.703125 L 11.761719 -13.527344 L 12.289062 -13.351562 L 13.023438 -12.746094 L 13.402344 -12.339844 L 13.628906 -11.910156 L 14.082031 -11.433594 L 14.636719 -11.207031 L 17.1875 -11.15625 L 17.691406 -11.207031 L 18.09375 -11.433594 L 18.246094 -11.960938 L 18.042969 -12.46875 L 17.96875 -12.921875 L 17.566406 -13.878906 L 16.632812 -15.167969 L 15.320312 -16.355469 L 14.765625 -16.734375 L 13.324219 -17.386719 L 12.339844 -17.667969 L 11.078125 -17.84375 L 8.78125 -17.84375 L 8.355469 -17.792969 L 7.875 -17.640625 L 6.890625 -17.4375 L 6.410156 -17.261719 L 6.03125 -17.035156 L 5.578125 -16.859375 L 3.8125 -15.722656 L 3.507812 -15.320312 L 2.828125 -14.6875 L 2.523438 -14.257812 L 1.363281 -11.988281 L 0.910156 -8.832031 L 1.007812 -8.027344 L 1.007812 -7.015625 L 1.261719 -6.03125 L 1.464844 -5.550781 L 1.539062 -5.097656 L 1.792969 -4.644531 L 1.96875 -4.214844 L 2.976562 -2.75 L 3.886719 -1.867188 L 4.316406 -1.589844 L 4.695312 -1.289062 L 6.410156 -0.351562 L 6.914062 -0.175781 L 7.292969 -0.0742188 L 7.824219 0.101562 L 8.355469 0.152344 L 8.808594 0.253906 Z M 9.289062 0.253906 "/></g></g></g><g fill="#ffffff" fill-opacity="1"><g transform="translate(128.628566, 46.173013)"><g><path d="M 1.917969 -0.707031 L 2.121094 -0.175781 L 2.699219 0.0507812 L 3.179688 0.0507812 L 3.960938 -0.0234375 L 4.695312 0 L 5.222656 0.0742188 L 5.753906 0.0234375 L 6.308594 -0.203125 L 6.511719 -0.707031 L 6.535156 -1.210938 L 6.460938 -1.765625 L 6.511719 -2.222656 L 6.460938 -2.726562 L 6.511719 -3.207031 L 6.484375 -3.761719 L 6.535156 -4.289062 L 6.460938 -6.285156 L 6.714844 -6.8125 L 7.21875 -7.117188 L 7.746094 -7.117188 L 8.203125 -7.066406 L 9.691406 -7.066406 L 10.195312 -7.117188 L 10.699219 -7.066406 L 11.179688 -7.066406 L 11.632812 -6.8125 L 11.886719 -6.308594 L 11.960938 -4.769531 L 11.886719 -4.289062 L 11.988281 -2.5 L 11.886719 -1.742188 L 11.960938 -0.757812 L 12.214844 -0.226562 L 12.71875 0.0234375 L 13.222656 -0.0234375 L 13.980469 0.0507812 L 15.722656 0.0507812 L 16.226562 -0.226562 L 16.503906 -0.707031 L 16.605469 -1.742188 L 16.605469 -5.804688 L 16.503906 -6.761719 L 16.53125 -7.269531 L 16.480469 -7.796875 L 16.480469 -8.304688 L 16.554688 -8.832031 L 16.53125 -9.792969 L 16.582031 -10.347656 L 16.503906 -12.820312 L 16.632812 -14.914062 L 16.53125 -15.394531 L 16.480469 -15.875 L 16.582031 -16.378906 L 16.53125 -16.882812 L 16.277344 -17.386719 L 15.496094 -17.640625 L 14.207031 -17.667969 L 13.402344 -17.589844 L 12.894531 -17.589844 L 12.140625 -17.363281 L 11.9375 -16.632812 L 11.988281 -13.878906 L 11.886719 -13.453125 L 11.886719 -11.988281 L 11.609375 -11.484375 L 11.179688 -11.230469 L 10.171875 -11.230469 L 9.714844 -11.28125 L 7.269531 -11.257812 L 6.738281 -11.484375 L 6.535156 -11.960938 L 6.535156 -13.476562 L 6.585938 -13.929688 L 6.511719 -16.429688 L 6.535156 -16.859375 L 6.234375 -17.386719 L 5.453125 -17.640625 L 3.960938 -17.589844 L 3.457031 -17.640625 L 2.976562 -17.589844 L 2.195312 -17.363281 L 1.917969 -16.933594 L 1.84375 -16.378906 L 1.84375 -15.898438 L 1.894531 -15.34375 L 1.816406 -14.863281 L 1.941406 -13.351562 L 1.867188 -12.796875 L 1.917969 -12.367188 L 1.816406 -11.863281 L 1.917969 -10.320312 L 1.867188 -9.792969 L 1.867188 -8.328125 L 1.941406 -7.847656 L 1.894531 -7.066406 L 1.941406 -6.484375 L 1.867188 -5.300781 L 1.917969 -4.746094 L 1.84375 -4.238281 L 1.917969 -3.785156 L 1.867188 -3.28125 Z M 1.917969 -0.707031 "/></g></g></g></svg>