<svg xmlns="http://www.w3.org/2000/svg" xmlns:xlink="http://www.w3.org/1999/xlink" width="1080" zoomAndPan="magnify" viewBox="0 0 810 809.999993" height="1080" preserveAspectRatio="xMidYMid meet" version="1.0"><defs><g/></defs><path fill="#ffffff" d="M 246.355469 421.882812 C 246.03125 421.882812 245.75 421.769531 245.523438 421.542969 C 245.292969 421.316406 245.179688 421.039062 245.179688 420.714844 L 245.179688 389.101562 C 245.179688 388.746094 245.285156 388.453125 245.5 388.226562 C 245.710938 388 245.996094 387.886719 246.355469 387.886719 L 250.328125 387.886719 C 250.949219 387.886719 251.4375 388.195312 251.796875 388.808594 L 261.261719 406.195312 L 270.722656 388.808594 C 271.082031 388.195312 271.574219 387.886719 272.195312 387.886719 L 276.117188 387.886719 C 276.476562 387.886719 276.769531 388 277 388.226562 C 277.226562 388.453125 277.339844 388.746094 277.339844 389.101562 L 277.339844 420.714844 C 277.339844 421.070312 277.226562 421.355469 277 421.566406 C 276.769531 421.777344 276.476562 421.882812 276.117188 421.882812 L 271.898438 421.882812 C 271.574219 421.882812 271.292969 421.769531 271.066406 421.542969 C 270.835938 421.316406 270.722656 421.039062 270.722656 420.714844 L 270.722656 399.832031 L 263.90625 412.652344 C 263.546875 413.367188 263.007812 413.722656 262.289062 413.722656 L 260.230469 413.722656 C 259.542969 413.722656 258.988281 413.367188 258.5625 412.652344 L 251.75 399.832031 L 251.75 420.714844 C 251.75 421.039062 251.644531 421.316406 251.429688 421.542969 C 251.21875 421.769531 250.933594 421.882812 250.574219 421.882812 Z M 291.804688 422.367188 C 290.136719 422.367188 288.609375 422.035156 287.21875 421.371094 C 285.832031 420.707031 284.738281 419.808594 283.9375 418.675781 C 283.136719 417.542969 282.734375 416.296875 282.734375 414.9375 C 282.734375 412.734375 283.632812 410.953125 285.429688 409.59375 C 287.230469 408.234375 289.695312 407.3125 292.835938 406.828125 L 299.550781 405.855469 L 299.550781 404.835938 C 299.550781 403.445312 299.191406 402.390625 298.472656 401.679688 C 297.753906 400.96875 296.609375 400.609375 295.039062 400.609375 C 293.960938 400.609375 293.09375 400.804688 292.441406 401.195312 C 291.789062 401.582031 291.257812 401.980469 290.847656 402.382812 L 290.039062 403.183594 C 289.910156 403.574219 289.664062 403.765625 289.304688 403.765625 L 285.480469 403.765625 C 285.1875 403.765625 284.933594 403.671875 284.71875 403.476562 C 284.507812 403.28125 284.402344 403.023438 284.402344 402.699219 C 284.433594 401.890625 284.835938 400.976562 285.601562 399.957031 C 286.371094 398.933594 287.554688 398.046875 289.15625 397.285156 C 290.757812 396.523438 292.734375 396.144531 295.089844 396.144531 C 298.945312 396.144531 301.757812 397 303.523438 398.71875 C 305.285156 400.433594 306.167969 402.683594 306.167969 405.46875 L 306.167969 420.714844 C 306.167969 421.039062 306.0625 421.316406 305.851562 421.542969 C 305.636719 421.769531 305.351562 421.882812 304.992188 421.882812 L 300.921875 421.882812 C 300.597656 421.882812 300.320312 421.769531 300.089844 421.542969 C 299.859375 421.316406 299.746094 421.039062 299.746094 420.714844 L 299.746094 418.820312 C 299.027344 419.859375 298.015625 420.707031 296.707031 421.371094 C 295.398438 422.035156 293.765625 422.367188 291.804688 422.367188 Z M 293.472656 417.703125 C 295.269531 417.703125 296.738281 417.121094 297.882812 415.957031 C 299.027344 414.789062 299.601562 413.109375 299.601562 410.90625 L 299.601562 409.933594 L 294.695312 410.710938 C 290.9375 411.292969 289.058594 412.539062 289.058594 414.449219 C 289.058594 415.488281 289.492188 416.289062 290.359375 416.855469 C 291.222656 417.421875 292.261719 417.703125 293.472656 417.703125 Z M 313.621094 421.882812 C 313.292969 421.882812 313.015625 421.769531 312.789062 421.542969 C 312.558594 421.316406 312.445312 421.039062 312.445312 420.714844 L 312.445312 397.84375 C 312.445312 397.488281 312.558594 397.195312 312.789062 396.96875 C 313.015625 396.742188 313.292969 396.628906 313.621094 396.628906 L 317.640625 396.628906 C 318 396.628906 318.296875 396.742188 318.523438 396.96875 C 318.753906 397.195312 318.867188 397.488281 318.867188 397.84375 L 318.867188 399.832031 C 320.5 397.695312 322.855469 396.628906 325.925781 396.628906 L 327.988281 396.628906 C 328.347656 396.628906 328.632812 396.734375 328.84375 396.945312 C 329.058594 397.15625 329.164062 397.4375 329.164062 397.792969 L 329.164062 401.339844 C 329.164062 401.664062 329.058594 401.9375 328.84375 402.164062 C 328.632812 402.390625 328.347656 402.503906 327.988281 402.503906 L 324.113281 402.503906 C 322.578125 402.503906 321.367188 402.941406 320.484375 403.816406 C 319.601562 404.691406 319.160156 405.886719 319.160156 407.410156 L 319.160156 420.714844 C 319.160156 421.039062 319.046875 421.316406 318.816406 421.542969 C 318.589844 421.769531 318.3125 421.882812 317.984375 421.882812 Z M 342.695312 422.367188 C 340.210938 422.367188 338.136719 421.996094 336.46875 421.25 C 334.800781 420.503906 333.566406 419.640625 332.765625 418.652344 C 331.964844 417.664062 331.566406 416.8125 331.566406 416.101562 C 331.566406 415.777344 331.671875 415.519531 331.882812 415.324219 C 332.097656 415.132812 332.351562 415.035156 332.644531 415.035156 L 336.664062 415.035156 C 336.925781 415.035156 337.15625 415.164062 337.351562 415.421875 C 337.515625 415.550781 337.882812 415.859375 338.453125 416.34375 C 339.027344 416.832031 339.679688 417.210938 340.414062 417.484375 C 341.148438 417.761719 341.960938 417.898438 342.839844 417.898438 C 344.148438 417.898438 345.210938 417.648438 346.027344 417.144531 C 346.84375 416.644531 347.253906 415.925781 347.253906 414.984375 C 347.253906 414.335938 347.066406 413.8125 346.691406 413.40625 C 346.3125 413.003906 345.644531 412.628906 344.679688 412.289062 C 343.714844 411.949219 342.269531 411.570312 340.339844 411.148438 C 337.5625 410.566406 335.511719 409.675781 334.1875 408.476562 C 332.863281 407.28125 332.203125 405.695312 332.203125 403.71875 C 332.203125 402.421875 332.59375 401.203125 333.378906 400.050781 C 334.164062 398.902344 335.332031 397.964844 336.886719 397.234375 C 338.4375 396.507812 340.292969 396.144531 342.449219 396.144531 C 344.671875 396.144531 346.585938 396.492188 348.1875 397.1875 C 349.789062 397.882812 351.003906 398.71875 351.839844 399.6875 C 352.671875 400.660156 353.089844 401.515625 353.089844 402.261719 C 353.089844 402.554688 352.980469 402.804688 352.769531 403.015625 C 352.558594 403.226562 352.304688 403.332031 352.007812 403.332031 L 348.332031 403.332031 C 347.972656 403.332031 347.695312 403.199219 347.5 402.941406 C 347.269531 402.78125 346.902344 402.480469 346.394531 402.042969 C 345.890625 401.605469 345.324219 401.257812 344.703125 401 C 344.082031 400.742188 343.332031 400.609375 342.449219 400.609375 C 341.238281 400.609375 340.308594 400.871094 339.65625 401.386719 C 339 401.90625 338.675781 402.585938 338.675781 403.425781 C 338.675781 404.011719 338.828125 404.496094 339.140625 404.882812 C 339.449219 405.273438 340.078125 405.636719 341.027344 405.976562 C 341.976562 406.316406 343.398438 406.664062 345.292969 407.019531 C 351.175781 408.152344 354.117188 410.695312 354.117188 414.644531 C 354.117188 416.945312 353.113281 418.804688 351.101562 420.230469 C 349.09375 421.65625 346.289062 422.367188 342.695312 422.367188 Z M 360.34375 421.882812 C 360.015625 421.882812 359.738281 421.769531 359.511719 421.542969 C 359.28125 421.316406 359.167969 421.039062 359.167969 420.714844 L 359.167969 388.566406 C 359.167969 388.210938 359.28125 387.929688 359.511719 387.71875 C 359.738281 387.507812 360.015625 387.402344 360.34375 387.402344 L 364.804688 387.402344 C 365.164062 387.402344 365.453125 387.507812 365.664062 387.71875 C 365.875 387.929688 365.980469 388.210938 365.980469 388.566406 L 365.980469 399.640625 C 367.945312 397.308594 370.574219 396.144531 373.875 396.144531 C 376.882812 396.144531 379.285156 397.121094 381.082031 399.082031 C 382.878906 401.039062 383.777344 403.703125 383.777344 407.070312 L 383.777344 420.714844 C 383.777344 421.039062 383.671875 421.316406 383.460938 421.542969 C 383.25 421.769531 382.960938 421.882812 382.601562 421.882812 L 378.140625 421.882812 C 377.78125 421.882812 377.488281 421.769531 377.257812 421.542969 C 377.03125 421.316406 376.914062 421.039062 376.914062 420.714844 L 376.914062 407.359375 C 376.914062 405.484375 376.449219 404.019531 375.519531 402.964844 C 374.585938 401.914062 373.253906 401.386719 371.523438 401.386719 C 369.855469 401.386719 368.515625 401.921875 367.503906 402.992188 C 366.488281 404.058594 365.980469 405.515625 365.980469 407.359375 L 365.980469 420.714844 C 365.980469 421.039062 365.875 421.316406 365.664062 421.542969 C 365.453125 421.769531 365.164062 421.882812 364.804688 421.882812 Z M 391.183594 421.882812 C 390.855469 421.882812 390.578125 421.769531 390.347656 421.542969 C 390.121094 421.316406 390.003906 421.039062 390.003906 420.714844 L 390.003906 397.792969 C 390.003906 397.4375 390.121094 397.15625 390.347656 396.945312 C 390.578125 396.734375 390.855469 396.628906 391.183594 396.628906 L 395.054688 396.628906 C 395.414062 396.628906 395.699219 396.734375 395.914062 396.945312 C 396.125 397.15625 396.230469 397.4375 396.230469 397.792969 L 396.230469 399.445312 C 397.996094 397.242188 400.367188 396.144531 403.339844 396.144531 C 406.96875 396.144531 409.503906 397.582031 410.941406 400.464844 C 411.726562 399.171875 412.835938 398.125 414.273438 397.332031 C 415.710938 396.539062 417.265625 396.144531 418.929688 396.144531 C 421.613281 396.144531 423.800781 397.050781 425.5 398.863281 C 427.199219 400.675781 428.050781 403.3125 428.050781 406.777344 L 428.050781 420.714844 C 428.050781 421.039062 427.945312 421.316406 427.730469 421.542969 C 427.519531 421.769531 427.234375 421.882812 426.875 421.882812 L 422.804688 421.882812 C 422.476562 421.882812 422.199219 421.769531 421.972656 421.542969 C 421.742188 421.316406 421.628906 421.039062 421.628906 420.714844 L 421.628906 407.167969 C 421.628906 405.128906 421.195312 403.652344 420.328125 402.746094 C 419.460938 401.839844 418.328125 401.386719 416.921875 401.386719 C 415.648438 401.386719 414.558594 401.847656 413.660156 402.773438 C 412.761719 403.695312 412.3125 405.160156 412.3125 407.167969 L 412.3125 420.714844 C 412.3125 421.039062 412.207031 421.316406 411.996094 421.542969 C 411.78125 421.769531 411.496094 421.882812 411.136719 421.882812 L 407.019531 421.882812 C 406.691406 421.882812 406.414062 421.769531 406.183594 421.542969 C 405.957031 421.316406 405.839844 421.039062 405.839844 420.714844 L 405.839844 407.167969 C 405.839844 405.160156 405.398438 403.695312 404.519531 402.773438 C 403.636719 401.847656 402.507812 401.386719 401.136719 401.386719 C 399.859375 401.386719 398.773438 401.847656 397.875 402.773438 C 396.976562 403.695312 396.527344 405.160156 396.527344 407.167969 L 396.527344 420.714844 C 396.527344 421.039062 396.421875 421.316406 396.207031 421.542969 C 395.996094 421.769531 395.710938 421.882812 395.347656 421.882812 Z M 441.679688 422.367188 C 440.011719 422.367188 438.484375 422.035156 437.097656 421.371094 C 435.707031 420.707031 434.613281 419.808594 433.8125 418.675781 C 433.011719 417.542969 432.609375 416.296875 432.609375 414.9375 C 432.609375 412.734375 433.507812 410.953125 435.308594 409.59375 C 437.105469 408.234375 439.570312 407.3125 442.710938 406.828125 L 449.425781 405.855469 L 449.425781 404.835938 C 449.425781 403.445312 449.066406 402.390625 448.347656 401.679688 C 447.628906 400.96875 446.484375 400.609375 444.914062 400.609375 C 443.835938 400.609375 442.972656 400.804688 442.316406 401.195312 C 441.664062 401.582031 441.132812 401.980469 440.722656 402.382812 L 439.914062 403.183594 C 439.785156 403.574219 439.539062 403.765625 439.179688 403.765625 L 435.355469 403.765625 C 435.0625 403.765625 434.808594 403.671875 434.597656 403.476562 C 434.382812 403.28125 434.277344 403.023438 434.277344 402.699219 C 434.308594 401.890625 434.710938 400.976562 435.476562 399.957031 C 436.246094 398.933594 437.429688 398.046875 439.03125 397.285156 C 440.632812 396.523438 442.613281 396.144531 444.964844 396.144531 C 448.820312 396.144531 451.632812 397 453.398438 398.71875 C 455.164062 400.433594 456.046875 402.683594 456.046875 405.46875 L 456.046875 420.714844 C 456.046875 421.039062 455.9375 421.316406 455.726562 421.542969 C 455.515625 421.769531 455.226562 421.882812 454.867188 421.882812 L 450.800781 421.882812 C 450.472656 421.882812 450.195312 421.769531 449.964844 421.542969 C 449.738281 421.316406 449.621094 421.039062 449.621094 420.714844 L 449.621094 418.820312 C 448.902344 419.859375 447.890625 420.707031 446.582031 421.371094 C 445.277344 422.035156 443.640625 422.367188 441.679688 422.367188 Z M 443.347656 417.703125 C 445.144531 417.703125 446.617188 417.121094 447.757812 415.957031 C 448.902344 414.789062 449.476562 413.109375 449.476562 410.90625 L 449.476562 409.933594 L 444.574219 410.710938 C 440.8125 411.292969 438.933594 412.539062 438.933594 414.449219 C 438.933594 415.488281 439.367188 416.289062 440.234375 416.855469 C 441.101562 417.421875 442.136719 417.703125 443.347656 417.703125 Z M 463.546875 421.882812 C 463.21875 421.882812 462.941406 421.769531 462.710938 421.542969 C 462.484375 421.316406 462.371094 421.039062 462.371094 420.714844 L 462.371094 388.566406 C 462.371094 388.210938 462.484375 387.929688 462.710938 387.71875 C 462.941406 387.507812 463.21875 387.402344 463.546875 387.402344 L 467.664062 387.402344 C 468.023438 387.402344 468.308594 387.507812 468.523438 387.71875 C 468.734375 387.929688 468.839844 388.210938 468.839844 388.566406 L 468.839844 420.714844 C 468.839844 421.039062 468.734375 421.316406 468.523438 421.542969 C 468.308594 421.769531 468.023438 421.882812 467.664062 421.882812 Z M 476.585938 421.882812 C 476.261719 421.882812 475.984375 421.769531 475.753906 421.542969 C 475.523438 421.316406 475.410156 421.039062 475.410156 420.714844 L 475.410156 388.566406 C 475.410156 388.210938 475.523438 387.929688 475.753906 387.71875 C 475.984375 387.507812 476.261719 387.402344 476.585938 387.402344 L 480.707031 387.402344 C 481.066406 387.402344 481.351562 387.507812 481.5625 387.71875 C 481.777344 387.929688 481.882812 388.210938 481.882812 388.566406 L 481.882812 420.714844 C 481.882812 421.039062 481.777344 421.316406 481.5625 421.542969 C 481.351562 421.769531 481.066406 421.882812 480.707031 421.882812 Z M 499.726562 422.367188 C 495.871094 422.367188 492.898438 421.394531 490.804688 419.453125 C 488.714844 417.511719 487.585938 414.824219 487.421875 411.390625 L 487.375 409.253906 L 487.421875 407.117188 C 487.585938 403.71875 488.730469 401.039062 490.855469 399.082031 C 492.980469 397.121094 495.9375 396.144531 499.726562 396.144531 C 503.488281 396.144531 506.429688 397.121094 508.554688 399.082031 C 510.675781 401.039062 511.820312 403.71875 511.984375 407.117188 C 512.019531 407.507812 512.035156 408.21875 512.035156 409.253906 C 512.035156 410.289062 512.019531 411.003906 511.984375 411.390625 C 511.820312 414.824219 510.695312 417.511719 508.601562 419.453125 C 506.511719 421.394531 503.550781 422.367188 499.726562 422.367188 Z M 499.726562 417.460938 C 501.460938 417.460938 502.792969 416.929688 503.722656 415.859375 C 504.65625 414.789062 505.152344 413.222656 505.21875 411.148438 C 505.25 410.824219 505.269531 410.195312 505.269531 409.253906 C 505.269531 408.316406 505.25 407.683594 505.21875 407.359375 C 505.152344 405.289062 504.648438 403.710938 503.699219 402.625 C 502.75 401.542969 501.429688 401 499.726562 401 C 497.996094 401 496.65625 401.542969 495.707031 402.625 C 494.761719 403.710938 494.253906 405.289062 494.1875 407.359375 L 494.140625 409.253906 L 494.1875 411.148438 C 494.253906 413.222656 494.761719 414.789062 495.707031 415.859375 C 496.65625 416.929688 497.996094 417.460938 499.726562 417.460938 Z M 524.4375 421.882812 C 523.621094 421.882812 523.082031 421.476562 522.820312 420.667969 L 515.808594 398.132812 C 515.777344 398.035156 515.761719 397.890625 515.761719 397.695312 C 515.761719 397.40625 515.859375 397.15625 516.054688 396.945312 C 516.25 396.734375 516.496094 396.628906 516.789062 396.628906 L 520.515625 396.628906 C 520.84375 396.628906 521.128906 396.726562 521.375 396.921875 C 521.617188 397.113281 521.773438 397.324219 521.839844 397.550781 L 526.59375 413.527344 L 531.644531 397.695312 C 531.742188 397.40625 531.914062 397.15625 532.160156 396.945312 C 532.40625 396.734375 532.722656 396.628906 533.117188 396.628906 L 535.617188 396.628906 C 536.007812 396.628906 536.328125 396.734375 536.570312 396.945312 C 536.816406 397.15625 536.972656 397.40625 537.039062 397.695312 L 542.136719 413.527344 L 546.890625 397.550781 C 546.957031 397.324219 547.105469 397.113281 547.332031 396.921875 C 547.5625 396.726562 547.855469 396.628906 548.214844 396.628906 L 551.894531 396.628906 C 552.1875 396.628906 552.441406 396.734375 552.652344 396.945312 C 552.867188 397.15625 552.972656 397.40625 552.972656 397.695312 L 552.875 398.132812 L 545.863281 420.667969 C 545.730469 421.054688 545.542969 421.355469 545.300781 421.566406 C 545.054688 421.777344 544.71875 421.882812 544.292969 421.882812 L 541.058594 421.882812 C 540.207031 421.882812 539.667969 421.476562 539.441406 420.667969 L 534.390625 405.417969 L 529.292969 420.667969 C 529.03125 421.476562 528.472656 421.882812 527.625 421.882812 Z M 558.609375 421.882812 C 558.28125 421.882812 558.003906 421.769531 557.777344 421.542969 C 557.546875 421.316406 557.433594 421.039062 557.433594 420.714844 L 557.433594 415.8125 C 557.433594 415.488281 557.546875 415.210938 557.777344 414.984375 C 558.003906 414.757812 558.28125 414.644531 558.609375 414.644531 L 563.5625 414.644531 C 563.886719 414.644531 564.167969 414.757812 564.394531 414.984375 C 564.625 415.210938 564.738281 415.488281 564.738281 415.8125 L 564.738281 420.714844 C 564.738281 421.039062 564.632812 421.316406 564.417969 421.542969 C 564.207031 421.769531 563.921875 421.882812 563.5625 421.882812 Z M 558.609375 421.882812 " fill-opacity="1" fill-rule="nonzero"/><g fill="#ffffff" fill-opacity="1"><g transform="translate(175.171869, 378.000001)"><g><path d="M 5.851562 -3.199219 L 6.628906 -0.78125 L 8.890625 0.234375 L 10.453125 0 L 12.949219 0.234375 L 14.195312 0.078125 L 16.535156 0.078125 L 19.03125 -0.703125 L 19.734375 -2.964844 L 19.734375 -5.617188 L 19.890625 -7.019531 L 19.65625 -8.65625 L 19.8125 -13.648438 L 20.515625 -15.210938 L 21.996094 -16.066406 L 26.519531 -15.445312 L 28.078125 -14.117188 L 29.015625 -12.558594 L 29.640625 -11.152344 L 31.277344 -8.8125 L 32.761719 -6.007812 L 33.617188 -4.835938 L 34.242188 -3.277344 L 35.101562 -1.949219 L 36.816406 -0.546875 L 39.46875 0.15625 L 45.628906 0.078125 L 47.113281 0.234375 L 49.6875 0.15625 L 51.167969 -0.546875 L 51.636719 -2.261719 L 50.777344 -3.976562 L 49.84375 -5.070312 L 49.21875 -6.550781 L 46.566406 -10.53125 L 45.863281 -11.933594 L 43.367188 -15.988281 L 42.433594 -17.160156 L 42.355469 -19.03125 L 43.054688 -20.746094 L 44.148438 -21.917969 L 45.238281 -22.855469 L 48.28125 -28.3125 L 49.296875 -32.839844 L 49.140625 -37.753906 L 48.90625 -39.3125 L 47.503906 -43.757812 L 46.878906 -45.085938 L 46.019531 -46.332031 L 41.574219 -51.011719 L 38.84375 -52.492188 L 35.878906 -53.507812 L 31.433594 -54.523438 L 28.9375 -54.601562 L 26.675781 -54.445312 L 21.996094 -54.445312 L 20.4375 -54.757812 L 18.875 -54.757812 L 17.472656 -54.367188 L 15.910156 -54.367188 L 14.351562 -54.679688 L 12.636719 -54.757812 L 8.035156 -54.367188 L 6.628906 -53.585938 L 5.695312 -51.402344 L 5.773438 -33.539062 L 5.929688 -31.980469 L 5.695312 -28.859375 L 5.773438 -27.144531 L 5.773438 -25.585938 L 5.929688 -24.101562 L 5.773438 -22.621094 L 5.695312 -16.300781 L 5.851562 -14.742188 Z M 21.996094 -28.546875 L 20.4375 -29.40625 L 19.8125 -30.652344 L 19.8125 -35.335938 L 19.65625 -36.660156 L 19.8125 -39.9375 L 20.515625 -41.417969 L 22.152344 -42.042969 L 23.710938 -41.964844 L 26.832031 -42.277344 L 29.015625 -41.808594 L 31.042969 -41.652344 L 32.527344 -41.261719 L 34.476562 -38.84375 L 34.945312 -37.597656 L 35.257812 -35.566406 L 35.023438 -33.226562 L 34.320312 -31.667969 L 33.460938 -30.496094 L 32.605469 -29.796875 L 31.199219 -29.171875 L 28.9375 -28.625 L 27.457031 -28.546875 L 23.710938 -28.703125 Z M 21.996094 -28.546875 "/></g></g></g><g fill="#ffffff" fill-opacity="1"><g transform="translate(229.30392, 378.000001)"><g><path d="M 1.015625 -2.105469 L 1.402344 -0.46875 L 2.964844 -0.078125 L 9.828125 -0.078125 L 11.855469 0.15625 L 13.648438 -0.625 L 15.054688 -2.027344 L 16.378906 -4.679688 L 17.707031 -6.160156 L 19.578125 -6.941406 L 21.136719 -6.785156 L 25.507812 -6.863281 L 27.144531 -6.628906 L 28.9375 -6.863281 L 30.34375 -6.863281 L 31.980469 -6.707031 L 35.644531 -6.863281 L 38.21875 -6.007812 L 39.859375 -4.757812 L 40.246094 -3.355469 L 41.105469 -1.949219 L 42.433594 -0.703125 L 44.460938 0.078125 L 45.863281 -0.078125 L 48.59375 0.15625 L 53.429688 0 L 54.835938 -0.46875 L 55.144531 -2.105469 L 54.679688 -4.054688 L 54.132812 -5.460938 L 53.117188 -6.785156 L 52.648438 -8.347656 L 51.871094 -9.515625 L 51.402344 -10.996094 L 50.074219 -13.804688 L 49.53125 -15.289062 L 48.75 -16.613281 L 47.65625 -19.5 L 46.800781 -20.746094 L 46.175781 -22.308594 L 45.472656 -23.632812 L 44.929688 -25.195312 L 44.226562 -26.363281 L 43.757812 -27.925781 L 42.898438 -29.328125 L 42.277344 -30.652344 L 41.496094 -31.980469 L 41.105469 -33.460938 L 39.546875 -36.191406 L 39.078125 -37.675781 L 37.675781 -40.636719 L 37.285156 -41.886719 L 36.113281 -44.617188 L 34.554688 -47.503906 L 33.304688 -50.464844 L 32.605469 -51.636719 L 32.136719 -53.117188 L 30.730469 -54.601562 L 28.078125 -55.300781 L 25.585938 -54.523438 L 24.101562 -53.117188 L 23.632812 -51.714844 L 20.28125 -44.695312 L 19.421875 -43.289062 L 15.054688 -33.460938 L 14.664062 -32.136719 L 13.804688 -30.730469 L 12.558594 -27.925781 L 11.386719 -25.894531 L 10.84375 -24.414062 L 9.75 -22.386719 L 9.28125 -20.746094 L 8.578125 -19.5 L 8.035156 -17.941406 L 5.851562 -13.882812 L 3.589844 -8.191406 L 2.652344 -6.941406 L 1.949219 -5.382812 Z M 25.117188 -19.265625 L 23.632812 -19.890625 L 23.398438 -21.449219 L 26.519531 -28.546875 L 27.222656 -29.796875 L 28.234375 -30.574219 L 29.171875 -29.953125 L 30.1875 -26.910156 L 31.042969 -25.585938 L 31.355469 -24.335938 L 32.136719 -22.777344 L 32.683594 -21.371094 L 32.527344 -19.96875 L 31.199219 -19.34375 Z M 25.117188 -19.265625 "/></g></g></g><g fill="#ffffff" fill-opacity="1"><g transform="translate(285.931972, 378.000001)"><g><path d="M 5.773438 -2.261719 L 6.472656 -0.859375 L 8.347656 0 L 16.925781 -0.15625 L 19.265625 -0.859375 L 20.125 -2.105469 L 20.28125 -3.589844 L 20.203125 -5.226562 L 19.96875 -6.863281 L 20.203125 -17.394531 L 19.890625 -21.917969 L 20.59375 -23.011719 L 21.761719 -22.699219 L 23.710938 -20.28125 L 28.078125 -16.144531 L 29.09375 -14.820312 L 31.667969 -12.714844 L 33.460938 -12.714844 L 34.789062 -13.648438 L 41.339844 -20.28125 L 42.355469 -21.605469 L 43.445312 -22.699219 L 44.382812 -22.855469 L 45.007812 -21.917969 L 45.238281 -20.359375 L 45.007812 -18.875 L 45.085938 -17.472656 L 45.007812 -15.910156 L 45.238281 -13.027344 L 45.007812 -2.261719 L 45.785156 -0.625 L 47.503906 0 L 56.863281 0.078125 L 58.34375 -0.859375 L 59.203125 -2.496094 L 59.4375 -4.054688 L 59.125 -13.414062 L 59.28125 -14.898438 L 59.125 -17.941406 L 59.359375 -19.5 L 59.28125 -21.058594 L 59.4375 -22.699219 L 59.28125 -24.257812 L 59.515625 -25.660156 L 59.28125 -47.734375 L 59.4375 -49.375 L 59.28125 -50.699219 L 59.359375 -52.339844 L 58.5 -53.820312 L 56.941406 -54.757812 L 54.601562 -54.054688 L 52.648438 -52.960938 L 50.855469 -50.777344 L 46.410156 -46.175781 L 45.707031 -45.007812 L 34.164062 -32.761719 L 32.449219 -32.214844 L 31.042969 -32.683594 L 30.03125 -33.695312 L 29.09375 -35.023438 L 27.847656 -36.035156 L 26.910156 -37.285156 L 21.527344 -42.820312 L 19.65625 -45.160156 L 18.328125 -46.332031 L 17.316406 -47.425781 L 16.457031 -48.59375 L 15.367188 -49.609375 L 14.507812 -50.699219 L 12.792969 -52.492188 L 10.53125 -54.132812 L 8.269531 -54.757812 L 6.707031 -53.898438 L 5.851562 -52.339844 L 5.695312 -50.699219 L 5.929688 -16.300781 L 5.617188 -14.820312 L 5.929688 -3.742188 Z M 5.773438 -2.261719 "/></g></g></g><g fill="#ffffff" fill-opacity="1"><g transform="translate(351.140027, 378.000001)"><g><path d="M 1.015625 -2.105469 L 1.402344 -0.46875 L 2.964844 -0.078125 L 9.828125 -0.078125 L 11.855469 0.15625 L 13.648438 -0.625 L 15.054688 -2.027344 L 16.378906 -4.679688 L 17.707031 -6.160156 L 19.578125 -6.941406 L 21.136719 -6.785156 L 25.507812 -6.863281 L 27.144531 -6.628906 L 28.9375 -6.863281 L 30.34375 -6.863281 L 31.980469 -6.707031 L 35.644531 -6.863281 L 38.21875 -6.007812 L 39.859375 -4.757812 L 40.246094 -3.355469 L 41.105469 -1.949219 L 42.433594 -0.703125 L 44.460938 0.078125 L 45.863281 -0.078125 L 48.59375 0.15625 L 53.429688 0 L 54.835938 -0.46875 L 55.144531 -2.105469 L 54.679688 -4.054688 L 54.132812 -5.460938 L 53.117188 -6.785156 L 52.648438 -8.347656 L 51.871094 -9.515625 L 51.402344 -10.996094 L 50.074219 -13.804688 L 49.53125 -15.289062 L 48.75 -16.613281 L 47.65625 -19.5 L 46.800781 -20.746094 L 46.175781 -22.308594 L 45.472656 -23.632812 L 44.929688 -25.195312 L 44.226562 -26.363281 L 43.757812 -27.925781 L 42.898438 -29.328125 L 42.277344 -30.652344 L 41.496094 -31.980469 L 41.105469 -33.460938 L 39.546875 -36.191406 L 39.078125 -37.675781 L 37.675781 -40.636719 L 37.285156 -41.886719 L 36.113281 -44.617188 L 34.554688 -47.503906 L 33.304688 -50.464844 L 32.605469 -51.636719 L 32.136719 -53.117188 L 30.730469 -54.601562 L 28.078125 -55.300781 L 25.585938 -54.523438 L 24.101562 -53.117188 L 23.632812 -51.714844 L 20.28125 -44.695312 L 19.421875 -43.289062 L 15.054688 -33.460938 L 14.664062 -32.136719 L 13.804688 -30.730469 L 12.558594 -27.925781 L 11.386719 -25.894531 L 10.84375 -24.414062 L 9.75 -22.386719 L 9.28125 -20.746094 L 8.578125 -19.5 L 8.035156 -17.941406 L 5.851562 -13.882812 L 3.589844 -8.191406 L 2.652344 -6.941406 L 1.949219 -5.382812 Z M 25.117188 -19.265625 L 23.632812 -19.890625 L 23.398438 -21.449219 L 26.519531 -28.546875 L 27.222656 -29.796875 L 28.234375 -30.574219 L 29.171875 -29.953125 L 30.1875 -26.910156 L 31.042969 -25.585938 L 31.355469 -24.335938 L 32.136719 -22.777344 L 32.683594 -21.371094 L 32.527344 -19.96875 L 31.199219 -19.34375 Z M 25.117188 -19.265625 "/></g></g></g><g fill="#ffffff" fill-opacity="1"><g transform="translate(407.768079, 378.000001)"><g><path d="M 20.359375 0.15625 L 25.585938 0 L 27.847656 -0.78125 L 28.625 -2.964844 L 28.859375 -7.019531 L 28.625 -9.984375 L 28.78125 -11.621094 L 28.703125 -14.742188 L 28.859375 -16.144531 L 28.625 -17.863281 L 28.78125 -30.421875 L 28.546875 -32.058594 L 28.78125 -38.84375 L 29.40625 -41.183594 L 30.886719 -42.121094 L 33.929688 -42.277344 L 36.816406 -41.886719 L 38.453125 -42.121094 L 39.859375 -42.042969 L 41.183594 -42.898438 L 42.121094 -44.617188 L 42.199219 -52.027344 L 41.339844 -53.585938 L 39.859375 -54.601562 L 35.023438 -54.601562 L 33.539062 -54.757812 L 31.902344 -54.523438 L 30.421875 -54.679688 L 24.101562 -54.367188 L 22.542969 -54.679688 L 21.058594 -54.757812 L 19.421875 -54.523438 L 17.707031 -54.679688 L 16.300781 -54.367188 L 11.699219 -54.601562 L 9.28125 -54.367188 L 3.820312 -54.679688 L 2.339844 -53.898438 L 1.402344 -52.105469 L 1.480469 -50.542969 L 1.324219 -46.644531 L 1.480469 -44.226562 L 2.183594 -42.820312 L 3.589844 -42.042969 L 5.148438 -42.199219 L 12.558594 -42.042969 L 14.039062 -41.261719 L 14.898438 -39.703125 L 14.742188 -37.207031 L 14.898438 -35.023438 L 14.820312 -33.304688 L 14.898438 -31.746094 L 14.742188 -29.5625 L 14.976562 -17.941406 L 14.820312 -16.378906 L 14.742188 -10.0625 L 14.898438 -8.425781 L 14.820312 -3.898438 L 14.664062 -2.417969 L 15.679688 -0.703125 L 17.941406 0.078125 Z M 20.359375 0.15625 "/></g></g></g><g fill="#ffffff" fill-opacity="1"><g transform="translate(451.370112, 378.000001)"><g><path d="M 5.617188 -2.261719 L 6.628906 -0.78125 L 8.113281 0.078125 L 25.738281 -0.078125 L 27.144531 0.15625 L 31.902344 -0.078125 L 36.660156 0.234375 L 38.140625 0.078125 L 39.78125 -0.703125 L 40.480469 -2.183594 L 40.636719 -3.664062 L 40.558594 -8.503906 L 40.714844 -9.984375 L 39.703125 -11.542969 L 37.363281 -12.324219 L 27.066406 -12.480469 L 25.585938 -12.246094 L 23.867188 -12.402344 L 22.152344 -12.246094 L 20.515625 -13.183594 L 19.8125 -15.601562 L 19.890625 -19.421875 L 20.59375 -21.058594 L 21.996094 -21.917969 L 25.039062 -21.917969 L 26.597656 -22.074219 L 30.730469 -21.839844 L 32.839844 -21.996094 L 34.476562 -21.839844 L 35.878906 -21.917969 L 37.441406 -22.777344 L 38.21875 -24.257812 L 38.375 -30.421875 L 38.21875 -31.980469 L 37.519531 -33.460938 L 36.191406 -34.320312 L 33.070312 -34.398438 L 31.511719 -34.242188 L 29.875 -34.242188 L 28.078125 -34.398438 L 21.917969 -34.320312 L 20.59375 -35.179688 L 19.65625 -36.582031 L 19.5 -39 L 20.28125 -41.261719 L 22.699219 -41.964844 L 37.675781 -42.042969 L 39.3125 -42.898438 L 40.171875 -44.304688 L 40.015625 -47.503906 L 39.78125 -48.984375 L 39.859375 -50.699219 L 40.09375 -52.183594 L 39.3125 -53.742188 L 37.675781 -54.445312 L 31.433594 -54.523438 L 30.03125 -54.367188 L 28.46875 -54.601562 L 25.039062 -54.445312 L 23.476562 -54.601562 L 20.4375 -54.523438 L 19.03125 -54.679688 L 8.8125 -54.445312 L 6.550781 -53.898438 L 5.773438 -52.183594 L 5.929688 -49.0625 L 5.617188 -46.800781 L 5.929688 -42.820312 L 5.773438 -41.183594 L 5.929688 -39.78125 L 5.929688 -25.816406 L 5.695312 -24.179688 L 5.929688 -21.136719 L 5.773438 -18.019531 L 6.007812 -16.378906 L 5.851562 -14.664062 L 5.929688 -13.183594 L 5.695312 -11.777344 L 5.851562 -9.984375 L 5.851562 -8.425781 L 6.007812 -5.382812 L 5.929688 -3.820312 Z M 5.617188 -2.261719 "/></g></g></g><g fill="#ffffff" fill-opacity="1"><g transform="translate(496.064141, 378.000001)"><g><path d="M 28.703125 0.78125 L 33.382812 1.015625 L 40.949219 -0.546875 L 45.238281 -2.417969 L 46.410156 -3.199219 L 47.8125 -4.054688 L 49.140625 -4.992188 L 50.152344 -6.007812 L 51.011719 -7.332031 L 52.339844 -8.347656 L 54.679688 -12.402344 L 55.378906 -13.804688 L 55.769531 -15.289062 L 56.316406 -16.847656 L 56.550781 -18.328125 L 56.082031 -19.734375 L 54.132812 -20.59375 L 45.785156 -20.671875 L 44.070312 -19.890625 L 42.511719 -18.40625 L 41.886719 -17.082031 L 38.921875 -13.882812 L 36.269531 -12.558594 L 34.710938 -12.089844 L 33.070312 -11.933594 L 28.703125 -12.011719 L 24.492188 -13.570312 L 23.011719 -14.273438 L 21.996094 -15.367188 L 19.109375 -19.109375 L 18.484375 -20.4375 L 17.550781 -23.476562 L 17.316406 -27.144531 L 17.394531 -29.640625 L 17.941406 -31.042969 L 18.019531 -32.605469 L 18.484375 -34.007812 L 19.8125 -36.816406 L 21.761719 -39.234375 L 24.335938 -41.105469 L 25.816406 -41.730469 L 28.546875 -42.511719 L 33.382812 -42.355469 L 36.347656 -41.808594 L 37.984375 -41.261719 L 40.246094 -39.390625 L 41.417969 -38.140625 L 42.121094 -36.816406 L 43.523438 -35.335938 L 45.238281 -34.632812 L 53.117188 -34.476562 L 54.679688 -34.632812 L 55.925781 -35.335938 L 56.394531 -36.972656 L 55.769531 -38.53125 L 55.535156 -39.9375 L 54.289062 -42.898438 L 51.402344 -46.878906 L 47.347656 -50.542969 L 45.628906 -51.714844 L 41.183594 -53.742188 L 38.140625 -54.601562 L 34.242188 -55.144531 L 27.144531 -55.144531 L 25.816406 -54.988281 L 24.335938 -54.523438 L 21.292969 -53.898438 L 19.8125 -53.351562 L 18.640625 -52.648438 L 17.238281 -52.105469 L 11.777344 -48.59375 L 10.84375 -47.347656 L 8.734375 -45.394531 L 7.800781 -44.070312 L 4.210938 -37.050781 L 2.808594 -27.300781 L 3.121094 -24.804688 L 3.121094 -21.683594 L 3.898438 -18.640625 L 4.523438 -17.160156 L 4.757812 -15.757812 L 5.539062 -14.351562 L 6.085938 -13.027344 L 9.203125 -8.503906 L 12.011719 -5.773438 L 13.339844 -4.914062 L 14.507812 -3.976562 L 19.8125 -1.09375 L 21.371094 -0.546875 L 22.542969 -0.234375 L 24.179688 0.3125 L 25.816406 0.46875 L 27.222656 0.78125 Z M 28.703125 0.78125 "/></g></g></g><g fill="#ffffff" fill-opacity="1"><g transform="translate(555.578176, 378.000001)"><g><path d="M 5.929688 -2.183594 L 6.550781 -0.546875 L 8.347656 0.15625 L 9.828125 0.15625 L 12.246094 -0.078125 L 14.507812 0 L 16.144531 0.234375 L 17.785156 0.078125 L 19.5 -0.625 L 20.125 -2.183594 L 20.203125 -3.742188 L 19.96875 -5.460938 L 20.125 -6.863281 L 19.96875 -8.425781 L 20.125 -9.90625 L 20.046875 -11.621094 L 20.203125 -13.261719 L 19.96875 -19.421875 L 20.746094 -21.058594 L 22.308594 -21.996094 L 23.945312 -21.996094 L 25.351562 -21.839844 L 29.953125 -21.839844 L 31.511719 -21.996094 L 33.070312 -21.839844 L 34.554688 -21.839844 L 35.957031 -21.058594 L 36.738281 -19.5 L 36.972656 -14.742188 L 36.738281 -13.261719 L 37.050781 -7.722656 L 36.738281 -5.382812 L 36.972656 -2.339844 L 37.753906 -0.703125 L 39.3125 0.078125 L 40.871094 -0.078125 L 43.210938 0.15625 L 48.59375 0.15625 L 50.152344 -0.703125 L 51.011719 -2.183594 L 51.324219 -5.382812 L 51.324219 -17.941406 L 51.011719 -20.902344 L 51.089844 -22.464844 L 50.933594 -24.101562 L 50.933594 -25.660156 L 51.167969 -27.300781 L 51.089844 -30.265625 L 51.246094 -31.980469 L 51.011719 -39.625 L 51.402344 -46.097656 L 51.089844 -47.578125 L 50.933594 -49.0625 L 51.246094 -50.621094 L 51.089844 -52.183594 L 50.308594 -53.742188 L 47.890625 -54.523438 L 43.914062 -54.601562 L 41.417969 -54.367188 L 39.859375 -54.367188 L 37.519531 -53.664062 L 36.894531 -51.402344 L 37.050781 -42.898438 L 36.738281 -41.574219 L 36.738281 -37.050781 L 35.878906 -35.488281 L 34.554688 -34.710938 L 31.433594 -34.710938 L 30.03125 -34.867188 L 22.464844 -34.789062 L 20.824219 -35.488281 L 20.203125 -36.972656 L 20.203125 -41.652344 L 20.359375 -43.054688 L 20.125 -50.777344 L 20.203125 -52.105469 L 19.265625 -53.742188 L 16.847656 -54.523438 L 12.246094 -54.367188 L 10.6875 -54.523438 L 9.203125 -54.367188 L 6.785156 -53.664062 L 5.929688 -52.339844 L 5.695312 -50.621094 L 5.695312 -49.140625 L 5.851562 -47.425781 L 5.617188 -45.941406 L 6.007812 -41.261719 L 5.773438 -39.546875 L 5.929688 -38.21875 L 5.617188 -36.660156 L 5.929688 -31.902344 L 5.773438 -30.265625 L 5.773438 -25.738281 L 6.007812 -24.257812 L 5.851562 -21.839844 L 6.007812 -20.046875 L 5.773438 -16.378906 L 5.929688 -14.664062 L 5.695312 -13.105469 L 5.929688 -11.699219 L 5.773438 -10.140625 Z M 5.929688 -2.183594 "/></g></g></g><g fill="#ffffff" fill-opacity="1"><g transform="translate(612.674212, 378.000001)"><g><path d="M 9.828125 0.3125 L 11.777344 0.390625 L 12.636719 0.15625 L 13.414062 0.15625 L 14.273438 -0.15625 L 15.289062 -0.78125 L 15.910156 -1.09375 L 16.613281 -1.714844 L 17.316406 -2.496094 L 17.863281 -3.277344 L 18.5625 -5.695312 L 18.640625 -7.488281 L 18.328125 -8.425781 L 18.175781 -9.28125 L 17.707031 -10.296875 L 17.160156 -11.074219 L 16.613281 -11.542969 L 16.066406 -12.324219 L 15.210938 -12.792969 L 14.507812 -13.261719 L 13.570312 -13.414062 L 12.558594 -13.804688 L 11.699219 -13.882812 L 9.90625 -13.804688 L 8.191406 -13.492188 L 7.175781 -13.183594 L 6.550781 -12.871094 L 4.992188 -11.542969 L 3.742188 -10.21875 L 3.511719 -9.4375 L 3.121094 -8.578125 L 3.199219 -4.835938 L 3.433594 -3.976562 L 3.820312 -3.121094 L 4.289062 -2.496094 L 5.148438 -1.792969 L 5.539062 -1.171875 L 7.332031 -0.15625 L 8.035156 0.078125 L 9.046875 0.3125 Z M 9.828125 0.3125 "/></g></g></g></svg>